<?xml version="1.0" encoding="UTF-8" standalone="no"?>
<svg
   xmlns:dc="http://purl.org/dc/elements/1.1/"
   xmlns:cc="http://creativecommons.org/ns#"
   xmlns:rdf="http://www.w3.org/1999/02/22-rdf-syntax-ns#"
   xmlns:svg="http://www.w3.org/2000/svg"
   xmlns="http://www.w3.org/2000/svg"
   xmlns:sodipodi="http://sodipodi.sourceforge.net/DTD/sodipodi-0.dtd"
   xmlns:inkscape="http://www.inkscape.org/namespaces/inkscape"
   version="1.0"
   width="400.000000pt"
   height="138.000000pt"
   viewBox="0 0 400.000000 138.000000"
   preserveAspectRatio="xMidYMid meet"
   id="svg18"
   sodipodi:docname="logo.svg"
   inkscape:version="1.0.1 (3bc2e813f5, 2020-09-07)">
  <metadata
     id="metadata24">
    <rdf:RDF>
      <cc:Work
         rdf:about="">
        <dc:format>image/svg+xml</dc:format>
        <dc:type
           rdf:resource="http://purl.org/dc/dcmitype/StillImage" />
      </cc:Work>
    </rdf:RDF>
  </metadata>
  <defs
     id="defs22" />
  <sodipodi:namedview
     pagecolor="#ffffff"
     bordercolor="#666666"
     borderopacity="1"
     objecttolerance="10"
     gridtolerance="10"
     guidetolerance="10"
     inkscape:pageopacity="0"
     inkscape:pageshadow="2"
     inkscape:window-width="1920"
     inkscape:window-height="1017"
     id="namedview20"
     showgrid="false"
     inkscape:zoom="1.95375"
     inkscape:cx="266.66667"
     inkscape:cy="92"
     inkscape:window-x="-8"
     inkscape:window-y="-8"
     inkscape:window-maximized="1"
     inkscape:current-layer="svg18" />
  <g
     transform="matrix(0.11246523,0,0,-0.13278995,-24.717952,167.05961)"
     fill="#000000"
     stroke="none"
     id="g16"
     style="fill:#ff2a2a">
    <path
       d="m 3516,1148 c -2,-7 -6,-22 -9,-33 -21,-84 -73,-238 -99,-289 -33,-66 -74,-126 -87,-126 -5,0 -20,11 -33,25 -30,30 -60,108 -89,233 l -22,92 h -38 -39 l -1,-42 c -1,-93 -19,-205 -64,-413 -18,-85 -19,-138 -3,-182 13,-36 37,-43 62,-17 21,21 20,33 -5,60 l -20,22 21,108 c 39,200 50,259 50,288 0,46 14,21 45,-79 21,-70 35,-97 65,-127 67,-68 106,-52 174,72 39,72 44,64 26,-45 -14,-87 -15,-223 -2,-271 18,-63 76,-104 116,-82 14,8 15,13 5,24 -6,8 -17,14 -25,14 -13,0 -33,29 -42,60 -22,73 -5,254 53,581 17,93 15,108 -15,127 -17,10 -21,10 -24,0 z"
       id="path2"
       style="fill:#ff2a2a" />
    <path
       d="m 745,1053 c -86,-23 -325,-80 -372,-89 -26,-5 -29,-22 -10,-47 11,-15 17,-15 72,-2 33,7 81,20 105,28 100,33 94,35 133,-46 20,-39 40,-90 45,-112 19,-75 25,-219 11,-279 -11,-50 -15,-56 -37,-56 -32,0 -93,63 -127,131 -37,72 -33,75 90,57 11,-2 21,4 23,14 4,21 -81,51 -135,46 -37,-3 -38,-4 -41,-44 -4,-55 39,-144 98,-206 55,-57 89,-67 136,-42 48,26 59,66 57,209 -1,131 -18,220 -57,309 l -25,56 23,15 c 12,8 49,20 82,26 65,13 104,37 82,51 -20,12 -55,8 -153,-19 z"
       id="path4"
       style="fill:#ff2a2a" />
    <path
       d="m 2106,934 c -9,-8 -16,-22 -16,-31 0,-8 -21,-78 -47,-154 l -47,-140 -29,3 c -29,3 -30,5 -53,104 -23,103 -47,164 -64,164 -13,0 -13,-16 1,-41 10,-20 53,-229 47,-234 -2,-1 -37,-5 -78,-8 -41,-4 -114,-9 -161,-13 -63,-5 -88,-4 -94,5 -4,8 25,44 83,99 75,71 92,94 98,125 10,61 -15,79 -108,79 -40,0 -111,-7 -156,-17 -45,-9 -86,-14 -91,-10 -5,3 -13,0 -16,-6 -4,-6 -27,-19 -51,-30 -48,-20 -66,-45 -43,-60 14,-9 28,-8 61,6 16,6 17,-1 11,-87 -4,-64 -2,-107 7,-134 13,-42 46,-84 66,-84 18,0 25,42 10,60 -22,25 -29,60 -28,140 3,135 9,143 124,157 72,8 120,8 143,-1 23,-9 2,-44 -60,-95 -119,-100 -138,-128 -116,-170 20,-36 78,-44 193,-25 57,9 129,18 161,21 55,5 57,5 57,-19 0,-14 8,-32 18,-42 18,-15 21,-15 47,6 33,26 73,109 110,232 15,49 36,98 46,109 24,26 27,107 5,107 -8,0 -22,-7 -30,-16 z M 1970,576 c 0,-3 -4,-8 -10,-11 -5,-3 -10,-1 -10,4 0,6 5,11 10,11 6,0 10,-2 10,-4 z"
       id="path6"
       style="fill:#ff2a2a" />
    <path
       d="M 1037,866 C 972,718 873,550 850,550 c -13,0 -23,-61 -13,-71 15,-15 35,-2 71,45 31,42 34,43 105,51 39,4 86,9 103,11 25,2 33,-2 48,-31 21,-38 45,-47 96,-36 41,8 47,34 10,39 -37,6 -56,23 -36,34 27,15 19,38 -13,38 -26,0 -29,4 -45,68 -22,87 -43,170 -50,203 -4,19 -14,28 -32,32 -24,4 -28,-1 -57,-67 z m 73,-147 c 11,-46 20,-87 20,-91 0,-5 -34,-8 -75,-8 -41,0 -75,3 -75,8 -1,4 21,50 47,103 30,60 51,91 55,83 4,-6 17,-49 28,-95 z"
       id="path8"
       style="fill:#ff2a2a" />
    <path
       d="m 2615,890 c -3,-4 -1,-30 4,-56 15,-79 23,-237 13,-269 -5,-16 -16,-31 -26,-33 -18,-4 -73,50 -111,109 -24,38 -65,161 -65,197 0,12 -9,26 -21,32 -33,18 -49,-4 -49,-65 0,-29 -11,-96 -25,-149 -43,-167 -31,-247 35,-224 34,11 37,20 15,38 -18,15 -19,73 -4,138 15,62 23,68 39,35 38,-73 93,-134 147,-163 40,-21 43,-21 69,-4 53,35 64,99 42,253 -9,63 -9,88 0,102 11,16 17,49 9,49 -1,0 -17,4 -34,9 -18,5 -35,6 -38,1 z"
       id="path10"
       style="fill:#ff2a2a" />
    <path
       d="m 2197,853 c -3,-5 -8,-62 -12,-128 -7,-114 -6,-121 14,-142 23,-24 55,-30 66,-13 4,6 -3,25 -14,43 -18,29 -19,44 -14,125 4,67 2,96 -7,107 -14,16 -26,19 -33,8 z"
       id="path12"
       style="fill:#ff2a2a" />
    <path
       d="m 3625,593 c -30,-8 -45,-23 -45,-48 0,-30 19,-44 52,-38 33,6 57,55 38,78 -7,8 -15,14 -19,14 -3,-1 -15,-4 -26,-6 z"
       id="path14"
       style="fill:#ff2a2a" />
  </g>
</svg>
